<?xml version="1.0" encoding="UTF-8"?>
<svg version="1.1" xmlns="http://www.w3.org/2000/svg" width="160" height="160">
<path d="M0 0 C52.8 0 105.6 0 160 0 C160 52.8 160 105.6 160 160 C107.2 160 54.4 160 0 160 C0 107.2 0 54.4 0 0 Z " fill="#DCCCC7" transform="translate(0,0)"/>
<path d="M0 0 C52.8 0 105.6 0 160 0 C160 52.8 160 105.6 160 160 C107.2 160 54.4 160 0 160 C0 107.2 0 54.4 0 0 Z M27 31 C26.44570313 31.54140625 25.89140625 32.0828125 25.3203125 32.640625 C11.61588472 47.30806662 7.45120236 66.14682265 7.72265625 85.5859375 C8.37211044 104.06145522 17.62107007 120.71599931 30.5625 133.5390625 C47.23833914 147.98153033 66.21953397 153.51284136 88 152 C101.63143617 150.7815476 114.61786438 144.66312628 125 136 C125.70382813 135.45730469 126.40765625 134.91460937 127.1328125 134.35546875 C140.54945942 123.54322976 148.87732647 106.98138823 151 90 C152.47072566 68.28928794 148.09676141 48.96956176 133.52734375 32.14453125 C121.03919687 19.11732767 104.7531337 9.21040069 86.28515625 8.734375 C84.21093763 8.72911382 82.1366676 8.73453076 80.0625 8.75 C79.02931641 8.74226562 77.99613281 8.73453125 76.93164062 8.7265625 C57.31585239 8.77625417 40.82801254 17.4128936 27 31 Z " fill="#161C46" transform="translate(0,0)"/>
<path d="M0 0 C0.91652344 0.01160156 1.83304688 0.02320313 2.77734375 0.03515625 C3.69644531 0.04417969 4.61554688 0.05320313 5.5625 0.0625 C6.27277344 0.07410156 6.98304687 0.08570313 7.71484375 0.09765625 C11.72582499 10.85545031 15.72327947 21.61821697 19.71020508 32.38494873 C20.39012581 34.22085864 21.07030912 36.05667132 21.75073242 37.89239502 C23.84475522 43.54258754 25.93326756 49.19476646 28.01461792 54.84963989 C28.68961039 56.68122184 29.36630696 58.51217669 30.04470825 60.34249878 C30.99794849 62.9154665 31.94503028 65.49062066 32.890625 68.06640625 C33.32094025 69.22191734 33.32094025 69.22191734 33.75994873 70.40077209 C34.86633489 73.43119298 35.71484375 75.84461574 35.71484375 79.09765625 C37.69484375 79.09765625 39.67484375 79.09765625 41.71484375 79.09765625 C41.71484375 79.75765625 41.71484375 80.41765625 41.71484375 81.09765625 C29.17484375 81.09765625 16.63484375 81.09765625 3.71484375 81.09765625 C3.71484375 80.43765625 3.71484375 79.77765625 3.71484375 79.09765625 C6.35484375 79.09765625 8.99484375 79.09765625 11.71484375 79.09765625 C9.07484375 71.17765625 6.43484375 63.25765625 3.71484375 55.09765625 C-3.87515625 55.09765625 -11.46515625 55.09765625 -19.28515625 55.09765625 C-21.92515625 62.68765625 -24.56515625 70.27765625 -27.28515625 78.09765625 C-24.64515625 78.42765625 -22.00515625 78.75765625 -19.28515625 79.09765625 C-19.28515625 79.75765625 -19.28515625 80.41765625 -19.28515625 81.09765625 C-25.22515625 81.09765625 -31.16515625 81.09765625 -37.28515625 81.09765625 C-37.28515625 80.43765625 -37.28515625 79.77765625 -37.28515625 79.09765625 C-35.30515625 79.09765625 -33.32515625 79.09765625 -31.28515625 79.09765625 C-31.15363159 78.36928055 -31.02210693 77.64090485 -30.88659668 76.89045715 C-30.32408821 74.27843761 -29.58589519 71.91629943 -28.66210938 69.4128418 C-28.3308606 68.50966721 -27.99961182 67.60649261 -27.6583252 66.6759491 C-27.29799194 65.70522964 -26.93765869 64.73451019 -26.56640625 63.734375 C-26.18963745 62.7107637 -25.81286865 61.6871524 -25.42468262 60.63252258 C-24.21495245 57.34878478 -23.00005776 54.06698381 -21.78515625 50.78515625 C-20.99837493 48.65050964 -20.21191362 46.51574506 -19.42578125 44.38085938 C-17.45841735 39.043076 -15.48298863 33.70833238 -13.50244141 28.37542725 C-12.66926996 26.13195521 -11.83695435 23.88816521 -11.00537109 21.644104 C-9.75787962 18.279842 -8.50648519 14.91705818 -7.25390625 11.5546875 C-6.86980591 10.51777267 -6.48570557 9.48085785 -6.08996582 8.41252136 C-5.73607788 7.4653273 -5.38218994 6.51813324 -5.01757812 5.54223633 C-4.55055481 4.28713005 -4.55055481 4.28713005 -4.07409668 3.00666809 C-2.88243324 0.12318091 -2.88243324 0.12318091 0 0 Z " fill="#181D46" transform="translate(77.28515625,39.90234375)"/>
<path d="M0 0 C0.66 0 1.32 0 2 0 C3.28545488 3.94981082 4.56710386 7.90083381 5.84521484 11.85302734 C6.28068891 13.19776866 6.71720755 14.54217217 7.15478516 15.88623047 C7.78301527 17.81650666 8.40749754 19.74796046 9.03125 21.6796875 C9.40830078 22.84226074 9.78535156 24.00483398 10.17382812 25.20263672 C11 28 11 28 11 30 C4.07 30 -2.86 30 -10 30 C-6.625 18.75 -6.625 18.75 -5.17578125 14.6484375 C-4.86962891 13.77832031 -4.56347656 12.90820312 -4.24804688 12.01171875 C-3.93931641 11.14160156 -3.63058594 10.27148438 -3.3125 9.375 C-2.83200195 8.01181641 -2.83200195 8.01181641 -2.34179688 6.62109375 C-1.56326686 4.41332207 -0.78264756 2.20631463 0 0 Z " fill="#D7C9C5" transform="translate(69,62)"/>
<path d="M0 0 C0.93423645 3.01031744 1.04449911 3.86650268 0 7 C0.66 7.33 1.32 7.66 2 8 C1.34 8 0.68 8 0 8 C-0.10739502 8.54744873 -0.21479004 9.09489746 -0.32543945 9.65893555 C-1.48898322 15.26510096 -3.13295443 20.47559505 -5.1875 25.8125 C-5.81269464 27.47079066 -6.43634007 29.12966605 -7.05859375 30.7890625 C-7.37812012 31.64016602 -7.69764648 32.49126953 -8.02685547 33.36816406 C-9.96193636 38.60152383 -11.77718231 43.87716876 -13.60229492 49.1496582 C-15.32996584 54.12887062 -17.13027171 59.07225224 -19 64 C-16.36 64.33 -13.72 64.66 -11 65 C-11 65.66 -11 66.32 -11 67 C-16.94 67 -22.88 67 -29 67 C-29 66.34 -29 65.68 -29 65 C-27.02 65 -25.04 65 -23 65 C-22.87011185 64.27587921 -22.74022369 63.55175842 -22.60639954 62.80569458 C-22.02560487 60.11846884 -21.25011744 57.68501441 -20.29760742 55.10888672 C-19.77652657 53.69118484 -19.77652657 53.69118484 -19.24491882 52.24484253 C-18.8689003 51.23334137 -18.49288177 50.22184021 -18.10546875 49.1796875 C-17.71684158 48.12524445 -17.32821442 47.07080139 -16.92781067 45.98440552 C-15.6845045 42.61331291 -14.4361187 39.24412806 -13.1875 35.875 C-12.35837949 33.63033554 -11.52959978 31.38554517 -10.70117188 29.140625 C-9.52596543 25.95624482 -8.35029496 22.77204607 -7.17192078 19.58883667 C-4.75806418 13.06757148 -2.36940534 6.53754749 0 0 Z " fill="#2B2A48" transform="translate(69,54)"/>
<path d="M0 0 C0.93423645 3.01031744 1.04449911 3.86650268 0 7 C0.66 7.33 1.32 7.66 2 8 C1.34 8 0.68 8 0 8 C-0.26039062 9.27875 -0.52078125 10.5575 -0.7890625 11.875 C-1.94590003 17.06348747 -3.56745819 22.00588664 -5.375 27 C-5.66632812 27.85722656 -5.95765625 28.71445313 -6.2578125 29.59765625 C-6.55171875 30.41105469 -6.845625 31.22445312 -7.1484375 32.0625 C-7.40802246 32.79597656 -7.66760742 33.52945313 -7.93505859 34.28515625 C-9 36 -9 36 -11.11572266 36.74609375 C-11.73753418 36.82988281 -12.3593457 36.91367188 -13 37 C-10.70033934 28.79420414 -7.80527873 20.85005087 -4.8125 12.875 C-4.3441091 11.61990058 -3.87600824 10.36469288 -3.40820312 9.109375 C-2.27497048 6.07184421 -1.13884527 3.03542994 0 0 Z " fill="#2E2D4A" transform="translate(69,54)"/>
<path d="M0 0 C0.66 0.33 1.32 0.66 2 1 C2 1.99 2 2.98 2 4 C-0.64 4 -3.28 4 -6 4 C-6 4.66 -6 5.32 -6 6 C6.54 6 19.08 6 32 6 C32 6.66 32 7.32 32 8 C19.13 8.33 6.26 8.66 -7 9 C-7 7.02 -7 5.04 -7 3 C-3.535 2.505 -3.535 2.505 0 2 C0 1.34 0 0.68 0 0 Z " fill="#C5BEC8" transform="translate(87,115)"/>
<path d="M0 0 C0.66 0 1.32 0 2 0 C2.99 3.3 3.98 6.6 5 10 C-1.93 10 -8.86 10 -16 10 C-16 9.34 -16 8.68 -16 8 C-11.05 8 -6.1 8 -1 8 C-0.67 5.36 -0.34 2.72 0 0 Z " fill="#B8ABB6" transform="translate(75,82)"/>
<path d="M0 0 C0.33 0.66 0.66 1.32 1 2 C0.34 2 -0.32 2 -1 2 C-1.226875 2.556875 -1.45375 3.11375 -1.6875 3.6875 C-4.35001484 8.37859758 -8.24252589 11.55697276 -13 14 C-13.66 14 -14.32 14 -15 14 C-15.33 15.32 -15.66 16.64 -16 18 C-17.32 17.67 -18.64 17.34 -20 17 C-13.79482191 10.48166339 -7.8354109 4.58516638 0 0 Z " fill="#CFC1C8" transform="translate(43,18)"/>
<path d="M0 0 C0 0.66 0 1.32 0 2 C-5.94 2 -11.88 2 -18 2 C-18 1.34 -18 0.68 -18 0 C-11.96496237 -1.50875941 -6.10261631 -0.64186094 0 0 Z " fill="#242037" transform="translate(58,119)"/>
<path d="M0 0 C0.66 0 1.32 0 2 0 C2.99 3.63 3.98 7.26 5 11 C4.01 11.495 4.01 11.495 3 12 C2.67 10.68 2.34 9.36 2 8 C0.68 8.33 -0.64 8.66 -2 9 C-1.34 6.03 -0.68 3.06 0 0 Z " fill="#BCB7BE" transform="translate(69,62)"/>
<path d="M0 0 C0.66 0.66 1.32 1.32 2 2 C1.02992484 4.68636197 0.11792985 6.84578404 -1.625 9.125 C-3.29568183 11.0156801 -3.29568183 11.0156801 -3 14 C-4.32 14.33 -5.64 14.66 -7 15 C-5.63408831 11.45756548 -4.09068516 8.07372071 -2.375 4.6875 C-1.70597656 3.36298828 -1.70597656 3.36298828 -1.0234375 2.01171875 C-0.68570313 1.34785156 -0.34796875 0.68398437 0 0 Z " fill="#242546" transform="translate(147,105)"/>
<path d="M0 0 C0.99 0.33 1.98 0.66 3 1 C2.57742724 2.4835001 2.13643678 3.96176424 1.6875 5.4375 C1.44386719 6.26121094 1.20023438 7.08492188 0.94921875 7.93359375 C0.63597656 8.61550781 0.32273438 9.29742187 0 10 C-0.99 10.33 -1.98 10.66 -3 11 C-2.53199289 6.94393835 -2.12046792 3.53411321 0 0 Z " fill="#272447" transform="translate(56,91)"/>
<path d="M0 0 C4.2742558 1.5830577 6.26531794 4.50568404 9 8 C4.75153925 7.52794881 2.73180712 5.11122478 0 2 C0 1.34 0 0.68 0 0 Z " fill="#D7C5D2" transform="translate(123,24)"/>
<path d="M0 0 C0.66 0 1.32 0 2 0 C2.33 1.65 2.66 3.3 3 5 C1.35 5.66 -0.3 6.32 -2 7 C-1.34 4.69 -0.68 2.38 0 0 Z " fill="#CBC1C7" transform="translate(53,107)"/>
<path d="M0 0 C0.66 0 1.32 0 2 0 C1.6875 2.375 1.6875 2.375 1 5 C0.01 5.66 -0.98 6.32 -2 7 C-2.33 6.01 -2.66 5.02 -3 4 C-2.34 3.34 -1.68 2.68 -1 2 C-0.67 1.34 -0.34 0.68 0 0 Z " fill="#CCBECC" transform="translate(131,125)"/>
<path d="M0 0 C0.66 0.33 1.32 0.66 2 1 C2 2.98 2 4.96 2 7 C0.68 7 -0.64 7 -2 7 C-1.34 4.69 -0.68 2.38 0 0 Z " fill="#32334E" transform="translate(48,111)"/>
<path d="M0 0 C0.66 0 1.32 0 2 0 C2.33 2.31 2.66 4.62 3 7 C1.68 6.67 0.36 6.34 -1 6 C-0.67 5.01 -0.34 4.02 0 3 C0 2.01 0 1.02 0 0 Z " fill="#D4C6CC" transform="translate(76,84)"/>
</svg>
